<svg width="248" height="248" viewBox="0 0 248 248" fill="none" xmlns="http://www.w3.org/2000/svg">
<path fill-rule="evenodd" clip-rule="evenodd" d="M114.758 0.753967L1.01688 1.00897L0.757885 115.004C0.615885 177.702 0.724885 228.989 0.999885 228.975C1.27488 228.961 9.71189 216.755 19.7499 201.85L37.9999 174.751V106.375V38H106.378H174.757L201.628 19.882C230.784 0.224968 229.519 1.11197 228.917 0.749967C228.688 0.611967 177.316 0.613967 114.758 0.753967ZM94.4579 95.248C94.1889 95.951 94.0879 109.345 94.2339 125.013L94.4999 153.5L124.265 153.765L154.03 154.03L153.765 124.265L153.5 94.5L124.224 94.235C101.191 94.026 94.8439 94.242 94.4579 95.248ZM229.239 117.26L212 134.521V173.26V212H173.239H134.479L117.239 229.26C107.758 238.754 99.9999 246.857 99.9999 247.267C99.9999 247.677 133.188 247.897 173.75 247.756L247.5 247.5L247.756 173.75C247.897 133.188 247.668 100 247.246 100C246.824 100 238.721 107.767 229.239 117.26Z" fill="currentColor"/>
</svg>
