<svg width="208" height="248" viewBox="0 0 208 248" fill="none" xmlns="http://www.w3.org/2000/svg">
<path fill-rule="evenodd" clip-rule="evenodd" d="M45.636 4.19595C46.515 12.4249 49.248 22.4369 53.211 31.9399C62.716 54.7379 64.013 58.1319 66.074 65.6109C69.098 76.5819 69.879 101.632 67.606 114.74C65.913 124.501 61.864 140.002 61.007 139.997C60.728 139.996 59.268 136.508 57.763 132.247C56.258 127.986 52.929 120.9 50.366 116.5C42.754 103.435 21.685 83.8109 3.75 73.0799L0 70.8369L0.0100002 73.6679C0.0240002 77.7689 3.857 85.2879 10.884 94.9999C18.819 105.966 21.88 112.254 23.289 120.479C25.803 135.157 18.484 154.236 4.275 170.039C1.783 172.81 -0.0850003 175.222 0.122 175.399C0.33 175.575 21.65 189.365 47.5 206.042C73.35 222.719 98.26 238.79 102.855 241.756L111.21 247.147L110.707 196.323C110.197 144.756 109.719 137.043 105.548 113.202C99.79 80.282 89.22 54.7599 70.424 28.3949C63.5 18.6829 48.269 0.897946 46.338 0.269945C45.531 0.00694547 45.316 1.20795 45.636 4.19595ZM153.427 7.11495C133.211 26.6639 122.97 46.6129 118.487 75.1779C116.492 87.8859 115.095 142.483 116.779 141.881C118.024 141.437 162 101.935 162 101.262C162 101.013 161.156 99.6139 160.126 98.1539C152.113 86.8079 145.923 67.8619 145.831 54.4039C145.753 43.0609 147.307 37.5499 154.971 21.9779C160.336 11.0749 163.183 1.84895 161.653 0.318945C161.329 -0.00405475 157.628 3.05395 153.427 7.11495ZM198.763 96.9079C170.664 112.661 155.758 129.897 143.699 160.578C140.651 168.332 126.582 217.973 127.264 218.567C127.394 218.68 139.734 212.5 154.687 204.833L181.874 190.894L180.455 186.874C177.347 178.065 175.752 165.754 176.261 154.5C177.05 137.024 180.923 128.423 195.173 112.494C202.668 104.116 208.52 95.0529 207.807 92.9259C207.638 92.4219 203.568 94.2139 198.763 96.9079Z" fill="currentColor"/>
</svg>
