<svg width="228" height="230" viewBox="0 0 228 230" fill="none" xmlns="http://www.w3.org/2000/svg">
<path fill-rule="evenodd" clip-rule="evenodd" d="M0 71.739V143.478L17 126.5L34 109.522V72.261V35H71.261H108.522L125.261 18.239C134.467 9.021 142 1.146 142 0.739C142 0.333 110.05 0 71 0H0V71.739ZM93.655 94.845L6.814 181.69L8.567 198.095C9.531 207.118 10.652 215.421 11.058 216.547C11.726 218.399 13.475 218.773 29.462 220.482L47.129 222.37L134.203 135.296L221.276 48.222L219.576 31.861C218.641 22.863 217.507 14.583 217.056 13.461C216.321 11.635 214.534 11.243 199.868 9.693C190.866 8.741 182.824 7.971 181.998 7.981C181.172 7.992 141.417 47.08 93.655 94.845ZM210.739 103.761L194 120.521V157.761V195H156.739H119.478L102.739 211.761C93.533 220.979 86 228.854 86 229.261C86 229.667 117.95 230 157 230H228V158.5C228 119.175 227.883 87 227.739 87C227.595 87 219.945 94.542 210.739 103.761Z" fill="currentColor"/>
</svg>
