<svg width="246" height="184" viewBox="0 0 246 184" fill="none" xmlns="http://www.w3.org/2000/svg">
<path fill-rule="evenodd" clip-rule="evenodd" d="M98.649 11.501L90.99 23.001L98.693 34.501L106.397 46H122.016H137.636L145.315 34.489L152.994 22.977L145.343 11.489L137.691 0H122H106.309L98.649 11.501ZM153.022 53.75L153.044 66.5L183.18 84.424L213.317 102.348L229.274 97.064L245.232 91.78L224.023 79.14L202.815 66.5L223.909 66.23L245.002 65.96L234.251 53.531L223.5 41.102L188.25 41.051L153 41L153.022 53.75ZM10.572 53.919C4.757 60.474 0 66.311 0 66.891C0 67.602 6.666 67.872 20.501 67.722C31.776 67.6 41.001 67.555 41.001 67.623C41 67.69 31.775 73.26 20.5 80C9.225 86.74 0.00400037 92.535 0.00800037 92.877C0.0230004 93.973 29.011 103.23 30.89 102.739C31.884 102.479 45.815 94.46 61.848 84.919L91 67.571V54.785V42H56.072H21.144L10.572 53.919ZM113.545 73.927C113.23 74.438 110.503 91.875 107.485 112.677C104.467 133.48 101.599 152.964 101.112 155.976L100.226 161.452L110.863 172.476C116.713 178.539 121.772 183.628 122.105 183.785C122.438 183.942 127.468 178.917 133.283 172.619C140.55 164.749 143.726 160.594 143.438 159.334C143.207 158.325 140.519 139.05 137.463 116.5C134.407 93.95 131.717 74.938 131.485 74.25C130.981 72.757 114.452 72.459 113.545 73.927Z" fill="currentColor"/>
</svg>
