<svg width="247" height="247" viewBox="0 0 247 247" fill="none" xmlns="http://www.w3.org/2000/svg">
<path fill-rule="evenodd" clip-rule="evenodd" d="M0 76.74V153.48L18.5 135L37 116.52V76.76V37H76.76H116.52L135 18.5L153.48 0H76.74H0V76.74ZM227.235 46.285L208.971 73.5L208.985 141.25L209 209L141.25 208.988L73.5 208.977L46.289 227.238C31.323 237.282 19.061 245.839 19.039 246.254C19.018 246.669 70.188 246.894 132.75 246.754L246.5 246.5L246.754 132.75C246.894 70.188 246.669 19.016 246.254 19.035C245.839 19.055 237.281 31.317 227.235 46.285ZM92 123V154H123H154V123V92H123H92V123Z" fill="currentColor"/>
</svg>
